<?xml version="1.0" encoding="utf-8"?>
<!-- Generator: Adobe Illustrator 26.3.1, SVG Export Plug-In . SVG Version: 6.00 Build 0)  -->
<svg version="1.1" id="Layer_1" xmlns="http://www.w3.org/2000/svg" xmlns:xlink="http://www.w3.org/1999/xlink" x="0px" y="0px"
	 viewBox="0 0 100 100" style="enable-background:new 0 0 100 100;" xml:space="preserve">
<style type="text/css">
	.st0{fill:#74FFFF;}
</style>
<g>
	<path class="st0" d="M21.22,13.06l9.59-9.59c0.48-0.48,1.25-0.48,1.72,0l33.8,33.8c0.78,0.78,1.43,1.4,1.45,1.38
		s0.68,0.6,1.45,1.38l8.49,8.49c0.78,0.78,1.38,1.44,1.34,1.46c0,0,0,0,0,0.03s0,0.03,0,0.03c0.04,0.03-0.56,0.69-1.34,1.46
		l-8.49,8.49c-0.78,0.78-1.43,1.4-1.45,1.38s-0.68,0.6-1.45,1.38l-33.8,33.8c-0.48,0.48-1.25,0.48-1.72,0l-9.59-9.59
		c-0.48-0.48-0.48-1.25,0-1.72l34.35-34.35c0.48-0.48,0.48-1.25,0-1.72L21.22,14.78C20.74,14.31,20.74,13.54,21.22,13.06z"/>
</g>
</svg>
