<?xml version="1.0" encoding="utf-8"?>
<!-- Generator: Adobe Illustrator 26.3.1, SVG Export Plug-In . SVG Version: 6.00 Build 0)  -->
<svg version="1.1" id="Layer_1" xmlns="http://www.w3.org/2000/svg" xmlns:xlink="http://www.w3.org/1999/xlink" x="0px" y="0px"
	 viewBox="0 0 100 100" style="enable-background:new 0 0 100 100;" xml:space="preserve">
<style type="text/css">
	.st0{fill:#74FFFF;}
</style>
<g>
	<path class="st0" d="M95.76,9.36l-5.02-5.02c-1.93-1.93-5.07-1.93-7,0L50.3,37.78L16.86,4.34c-1.93-1.93-5.07-1.93-7,0L4.84,9.36
		c-1.93,1.93-1.93,5.07,0,7L38.28,49.8L4.84,83.24c-1.93,1.93-1.93,5.07,0,7l5.02,5.02c1.93,1.93,5.07,1.93,7,0L50.3,61.82
		l33.44,33.44c1.93,1.93,5.07,1.93,7,0l5.02-5.02c1.93-1.93,1.93-5.07,0-7L62.32,49.8l33.44-33.44
		C97.69,14.43,97.69,11.3,95.76,9.36z"/>
</g>
</svg>
